<svg height="454" viewBox="0 0 1758 454" width="1758" xmlns="http://www.w3.org/2000/svg"><g fill="none" fill-rule="evenodd" transform="translate(0 .4566)"><path d="m56.6926 324.9845c-3.936-2.276-7.715-4.792-11.333-7.511-10.343 13.774-26.81 22.684-45.359 22.684h56.692 56.693c-20.653 0-40.014-5.525-56.693-15.173" fill="#f8ad0c"/><path d="m141.7327 42.5197c0 7.828-6.346 14.174-14.174 14.174-7.827 0-14.173-6.346-14.173-14.174 0-7.827 6.346-14.173 14.173-14.173 7.828 0 14.174 6.346 14.174 14.173" fill="#3c3c3b"/><path d="m85.0393 64.296c-8.341-4.826-18.017-7.603-28.347-7.603s-20.005 2.777-28.345 7.603c-8.601 4.978-15.767 12.144-20.744 20.743h20.744 28.345 28.347 20.743c-4.976-8.599-12.143-15.765-20.743-20.743" fill="#f8ad0c"/><path d="m113.386 283.465c-31.311 0-56.693-25.383-56.693-56.693 0-31.311 25.382-56.693 56.693-56.693s56.692 25.382 56.692 56.693c0 31.31-25.381 56.693-56.692 56.693m113.386 0v-56.693-113.386-113.386c-31.311 0-56.694 25.382-56.694 56.694v56.692h-56.692c-62.621 0-113.386 50.765-113.386 113.386 0 37.094 17.822 70.016 45.36 90.702 3.618 2.719 7.397 5.234 11.333 7.511 16.678 9.648 36.04 15.172 56.693 15.172s40.015-5.524 56.692-15.172v1c0 7.827 6.346 14.172 14.174 14.172h42.52 56.692c-31.31 0-56.692-25.381-56.692-56.692" fill="#3c3c3b"/><path d="m425.1965 324.9845v1c0-.348.027-.688.053-1.03-.018.009-.035.02-.053.03" fill="#1d1d1b"/><g fill="#3c3c3b"><path d="m623.6223 283.465c-31.311 0-56.693-25.383-56.693-56.693 0-31.311 25.382-56.693 56.693-56.693s56.692 25.382 56.692 56.693c0 31.31-25.381 56.693-56.692 56.693m0-170.079c-20.653 0-40.016 5.524-56.693 15.173v-.999c0-7.828-6.346-14.174-14.173-14.174h-42.52v113.386 113.385 113.386c31.311 0 56.693-25.382 56.693-56.692v-56.694-15.171c16.677 9.647 36.04 15.171 56.693 15.171 62.621 0 113.386-50.764 113.386-113.385s-50.765-113.386-113.386-113.386"/><path d="m878.7405 283.465c-31.311 0-56.693-25.383-56.693-56.693 0-31.311 25.382-56.693 56.693-56.693s56.692 25.382 56.692 56.693c0 31.31-25.381 56.693-56.692 56.693m0-170.079c-20.653 0-40.016 5.524-56.693 15.173v-.999c0-7.828-6.346-14.174-14.173-14.174h-42.52v113.386 113.385 113.386c31.311 0 56.693-25.382 56.693-56.692v-56.694-15.171c16.677 9.647 36.04 15.171 56.693 15.171 62.621 0 113.386-50.764 113.386-113.385s-50.765-113.386-113.386-113.386"/><path d="m368.5042 283.465c-31.311 0-56.693-25.383-56.693-56.693 0-31.311 25.382-56.693 56.693-56.693s56.692 25.382 56.692 56.693c0 31.31-25.381 56.693-56.692 56.693zm113.386-22.464v-34.229-99.213c0-7.827-6.346-14.173-14.173-14.173h-42.521v15.173c-16.677-9.649-36.039-15.173-56.692-15.173-62.621 0-113.386 50.765-113.386 113.386s50.765 113.385 113.386 113.385c20.653 0 40.015-5.524 56.692-15.172.018-.01.036-.021.053-.031-.025.342-.053.683-.053 1.031 0 7.827 6.346 14.172 14.174 14.172h42.52v-56.692z"/></g><path d="m1488.1887 28.3468h-42.52v42.52c0 7.827 6.346 14.172 14.173 14.172h42.521v-42.519c0-7.827-6.346-14.173-14.174-14.173" fill="#f8ad0c"/><path d="m1757.4719 226.1046c-.359-62.313-50.979-112.719-113.377-112.719-20.654 0-40.016 5.525-56.693 15.173v-1c0-7.827-6.346-14.173-14.174-14.173h-42.52v112.719.667 112.719h8.71c27.175-4.19 47.983-27.676 47.984-56.024v-.002-.003-56.69c0-31.311 25.383-56.692 56.693-56.692 31.311 0 56.692 25.381 56.692 56.692v56.693c0 12.765 4.222 24.543 11.341 34.019 8.692 11.568 21.704 19.704 36.643 22.007h8.709v-112.719c0-.223-.007-.444-.008-.667" fill="#3c3c3b"/><path d="m1371.9709 136.0597c-7.12 9.476-11.341 21.254-11.341 34.02v56.692c0 31.31-25.383 56.693-56.693 56.693-31.311 0-56.693-25.383-56.693-56.693 0-.223-.006-.444-.008-.667h.008v-69.664c0-7.827-6.345-14.173-14.173-14.173h-4.725-18.896-4.725c-7.828 0-14.174 6.346-14.174 14.173v69.664h.009c-.001.223-.009.444-.009.667 0 31.31-25.382 56.693-56.692 56.693-31.311 0-56.694-25.383-56.694-56.693v-56.692c0-12.766-4.22-24.544-11.34-34.02-10.343-13.768-26.807-22.674-45.352-22.674v113.386c0 62.621 50.765 113.386 113.386 113.386 33.868 0 64.262-14.855 85.039-38.398 20.776 23.543 51.171 38.398 85.039 38.398 62.622 0 113.386-50.765 113.386-113.386v-113.386c-18.545 0-35.009 8.906-45.352 22.674" fill="#3c3c3b"/><path d="m1445.6692 113.921v112.851.535 98.677c0 7.828 6.346 14.173 14.173 14.173h42.52v-113.385-56.158c0-31.31-25.382-56.693-56.693-56.693" fill="#3c3c3b"/></g></svg>