<svg height="191" viewBox="0 0 528 191" width="528" xmlns="http://www.w3.org/2000/svg"><g fill="#fbe2b4" fill-rule="evenodd"><path d="m482.3309 176.5264-16.933-5.063-1.476-62.416-8.52 48.153-18.477-2.938 1.316-13.883c12.064-10.19 18.471-26.261 14.972-40.832-1.543-6.462-4.853-12.071-9.549-16.359l1.551-16.349-6.975-1.863.477-8.732 31.829 6.398 10.702 50.756 10.964-45.501 24.214 5.359zm-59.845-36.079c-5.921 2.231-11.765 2.691-17.007 1.66-3.631-.714-6.97-2.146-9.842-4.213-4.592-3.305-7.992-8.219-9.463-14.403-1.764-7.395-.15-15.32 3.825-22.214 1.978-3.429 4.539-6.6 7.565-9.324 3.356-3.022 7.276-5.498 11.602-7.154 10.098-3.804 20.025-2.475 27.065 2.564 2.553 1.827 4.723 4.141 6.385 6.877 1.282 2.109 2.268 4.463 2.884 7.042 2.132 8.879-.42 18.413-6.026 26.098-2.388 3.273-5.329 6.211-8.703 8.618-2.537 1.81-5.314 3.322-8.285 4.449zm-24.413 13.272-24.384-3.724-6.477-42.973-9.17 23.71-13.742-29.625h-.149l-5.44 34.319-22.883-3.98 3.208-19.152c.863-.806 1.719-1.632 2.559-2.499l7.403-7.639-7.181-6.463 7.637-45.591h23.119l5.764 31.554 6.495-36.582h16.515l6.862 44.575c-8.736 9.946-12.962 23.299-10.044 35.538 2.253 9.462 8.086 17.113 16.424 21.543.845.449 1.715.847 2.596 1.22zm-112.716-34.201c-2.252.543-4.468.905-6.641 1.116-16.434 1.602-30.21-5.959-35.458-18.191-.626-1.461-1.133-2.988-1.507-4.574-2.429-10.318-.369-19.522 4.727-26.737 1.474-2.087 3.208-4.002 5.156-5.734 4.802-4.275 10.929-7.414 17.869-9.087 15.673-3.778 29.466 1.012 37.891 11.382l-29.822 31.76c2.033.362 5.249-.17 7.619-.741 7.113-1.714 11.099-5.473 14.581-9.597l11.92 10.728 3.62 3.259c-1.586 1.637-3.211 3.141-4.893 4.531-6.86 5.674-14.695 9.386-25.062 11.885zm-15.674 30.632-71.625-35.826.125 37.531-18.529 2.537-1.304-15.5c5.734-9.795 7.824-21.356 4.825-31.934-1.641-5.817-4.657-10.899-8.772-14.934l-2.658-31.567-8.334 2.174-.363-7.972 29.766-8.86 1.812 30.688 21.927-30.804 21.428 20.398-29.951 31.579 28.138 11.136c3.159 5.954 7.93 11.033 13.964 14.745 5.829 3.586 12.483 5.729 19.551 6.392zm-100.238-13.209c-4.099 5.684-9.766 10.421-16.468 13.28-17.13 7.26-34.248 0-38.819-16.242-4.436-15.745 5.877-34.436 22.473-41.573 10.584-4.485 21.209-3.422 28.835 1.753 4.718 3.202 8.29 7.974 9.987 13.992.186.654.337 1.313.475 1.976.473 2.292.663 4.626.586 6.963-.23 6.95-2.791 13.916-7.069 19.851zm-83.68-11.539 12.18 46.787-19.733 6.309-40.509-90.456c-2.193 1.155-6.259 3.096-10.012 4.942l-14.661-24.774c5.849-3.72 12.231-7.027 19.035-9.921 19.105-8.123 37.299-10.534 51.891-7.973 5.143.589 10.612 2.123 15.373 5.292 6.566 3.688 11.578 8.939 14.483 15.64 7.052 16.265-4.732 39.763-28.047 54.154zm146.717-27.14-9.957-3.863 9.273-9.008c-.397 4.154-.188 8.47.684 12.871zm55.679-84.854 10.685 14.52-30.56 15.144-2.111-3.198zm25.858 61.892 2.041-2.174-2.477 15.155-6.37-5.733zm172.417-17.848-3.941 16.249-3.644-18.015-48.792-10.733.358 27.12 7.348 1.636-.551 4.904c-.071-.038-.14-.081-.211-.119-9.094-4.828-20.391-5.306-31.039-1.294-3.552 1.359-6.862 3.172-9.887 5.33l-7.33-46.452h-32.452l-.908 5.327h-34.141l-3.907 23.904-2.838-3.492c-8.274-10.184-20.265-15.788-33.551-16.067l28.983-15.572-20.214-30.178-36.537 42.089 6.32 7.707c-5.729 2.333-10.716 5.542-14.828 9.428l-31.319-27.784-10.974 20.993.429-20.165-48.983 15.632 1.249 26.327 8.335-2.175 1.241 13.349c-9.514-4.278-20.947-4.192-31.567.309-3.139 1.35-6.08 3.041-8.791 5.004 1.841-8.127 1.405-16.14-1.69-23.278-3.653-8.429-10.08-15.409-17.966-19.806-5.528-3.68-12.119-5.979-19.026-6.753-16.93-2.971-37.278.081-57.297 8.593-7.363 3.131-14.236 6.715-20.428 10.653l-7.83 4.98 4.726 7.987 14.66 24.775s4.506 7.614 4.528 7.603l7.949-3.884 1.105-.54 36.44 81.371 3.503 7.82 8.162-2.609 19.734-6.309 8.641-2.763-2.285-8.78-10.476-40.24c3.02-2.22 5.829-4.59 8.421-7.071-.575 4.815-.28 9.674 1.033 14.334 2.743 9.746 9.133 17.458 17.993 21.713 9.57 4.598 21.251 4.61 32.049.034 5.421-2.313 10.245-5.645 14.316-9.652l1.488 16.009 34.537-5.074-.046-30.989 72.181 35.7v-34.564c2.916-.234 5.869-.693 8.836-1.408 7.961-1.919 14.74-4.565 20.781-8.176l-3.03 18.537 38.916 6.139 2.151-14.022 10.166 18.786 6.2-11.973 2.267 19.651 44.135 7.787-2.344-14.852c6.034.679 12.407-.116 18.555-2.432 1.473-.559 2.901-1.204 4.289-1.91l-1.776 15.815 29.369 4.11.241 12.043 30.604 9.629 39.886-120.172z"/><path d="m431.1708 95.9571c.191.729.289 1.489.258 2.272-.193 4.729-4.655 8.388-9.969 8.172-5.313-.215-9.466-4.224-9.273-8.953.18-4.442 4.129-7.939 9.011-8.168-.937-.202-1.903-.337-2.9-.377-8.878-.361-16.141 5.934-16.46 13.778-.339 8.349 6.39 15.211 15.134 15.567 8.879.36 16.142-5.935 16.481-14.284.117-2.896-.731-5.656-2.282-8.007"/><path d="m161.6014 105.5162c0 4.733-4.311 8.57-9.629 8.57s-9.629-3.837-9.629-8.57c0-4.446 3.804-8.1 8.673-8.527-.944-.163-1.915-.259-2.913-.259-8.886 0-15.887 6.584-15.887 14.434 0 8.357 7.001 14.94 15.753 14.94 8.885 0 15.888-6.583 15.888-14.94 0-2.898-.96-5.622-2.606-7.908.222.721.35 1.477.35 2.26"/><path d="m265.4999 89.5235c-2.206-4.009-1.757-9.136 1.495-12.709 3.141-3.451 7.969-4.435 12.077-2.859zm21.102-17.905c-6.96-6.334-17.738-5.827-24.072 1.133-6.333 6.959-5.826 17.737 1.133 24.071.579.526 1.191.988 1.818 1.42l22.328-25.409c-.379-.42-.781-.826-1.207-1.215zm-19.607 5.196c-3.252 3.573-3.701 8.7-1.495 12.709l13.572-15.568c-4.108-1.576-8.937-.592-12.077 2.859zm-1.495 12.709c-2.206-4.009-1.757-9.136 1.495-12.709 3.141-3.451 7.969-4.435 12.077-2.859z"/><path d="m85.8949 101.4019c-1.35-4.44-4.262-14.018-4.262-14.018.015.052-.589-2.063-1.267-4.44 2.645-.469 5.176-.23 7.259.775 1.16.56 3.171 1.866 3.615 4.32.997 5.512-.902 9.433-5.345 13.363m12.417-14.642c-1.734-9.59-14.215-14.957-26.691-8.267l3.135 10.982 4.936 16.233 2.251 7.404c9.35-5.942 18.771-13.075 16.369-26.352"/></g></svg>